<svg xmlns="http://www.w3.org/2000/svg" viewBox="0 0 200 200">
  <!-- Container with Wheat Growing -->
  <defs>
    <linearGradient id="containerBlue" x1="0%" y1="0%" x2="0%" y2="100%">
      <stop offset="0%" style="stop-color:#2496ED"/>
      <stop offset="100%" style="stop-color:#1A7AC7"/>
    </linearGradient>
    <linearGradient id="wheat" x1="0%" y1="0%" x2="0%" y2="100%">
      <stop offset="0%" style="stop-color:#F4D03F"/>
      <stop offset="100%" style="stop-color:#D4AC0D"/>
    </linearGradient>
  </defs>

  <!-- Container base -->
  <rect x="35" y="110" width="130" height="70" fill="url(#containerBlue)" rx="4"/>

  <!-- Container ridges -->
  <rect x="40" y="115" width="120" height="14" fill="#1A7AC7" rx="2"/>
  <rect x="40" y="133" width="120" height="14" fill="#1A7AC7" rx="2"/>
  <rect x="40" y="151" width="120" height="14" fill="#1A7AC7" rx="2"/>
  <rect x="40" y="169" width="120" height="8" fill="#1A7AC7" rx="2"/>

  <!-- Container corner posts -->
  <rect x="35" y="110" width="8" height="70" fill="#1565C0"/>
  <rect x="157" y="110" width="8" height="70" fill="#1565C0"/>

  <!-- Wheat stalks -->
  <g stroke="#8B7355" stroke-width="2" fill="none">
    <path d="M70 110 Q68 80 70 50"/>
    <path d="M100 110 Q100 70 100 35"/>
    <path d="M130 110 Q132 80 130 50"/>
  </g>

  <!-- Wheat heads (left) -->
  <g fill="url(#wheat)">
    <ellipse cx="70" cy="50" rx="4" ry="8"/>
    <ellipse cx="65" cy="55" rx="4" ry="7"/>
    <ellipse cx="75" cy="55" rx="4" ry="7"/>
    <ellipse cx="63" cy="62" rx="3" ry="6"/>
    <ellipse cx="77" cy="62" rx="3" ry="6"/>
  </g>

  <!-- Wheat heads (center - taller) -->
  <g fill="url(#wheat)">
    <ellipse cx="100" cy="35" rx="5" ry="9"/>
    <ellipse cx="94" cy="42" rx="4" ry="8"/>
    <ellipse cx="106" cy="42" rx="4" ry="8"/>
    <ellipse cx="91" cy="51" rx="4" ry="7"/>
    <ellipse cx="109" cy="51" rx="4" ry="7"/>
    <ellipse cx="94" cy="60" rx="3" ry="6"/>
    <ellipse cx="106" cy="60" rx="3" ry="6"/>
  </g>

  <!-- Wheat heads (right) -->
  <g fill="url(#wheat)">
    <ellipse cx="130" cy="50" rx="4" ry="8"/>
    <ellipse cx="125" cy="55" rx="4" ry="7"/>
    <ellipse cx="135" cy="55" rx="4" ry="7"/>
    <ellipse cx="123" cy="62" rx="3" ry="6"/>
    <ellipse cx="137" cy="62" rx="3" ry="6"/>
  </g>

  <!-- Small leaves on stalks -->
  <g fill="#6B8E23">
    <path d="M70 85 Q60 80 70 75"/>
    <path d="M70 75 Q80 70 70 65"/>
    <path d="M100 90 Q88 85 100 80"/>
    <path d="M100 75 Q112 70 100 65"/>
    <path d="M130 85 Q140 80 130 75"/>
    <path d="M130 75 Q120 70 130 65"/>
  </g>
</svg>
