<svg xmlns="http://www.w3.org/2000/svg" viewBox="0 0 200 200">
  <!-- Minimalist Tractor with Container Trailer -->
  <defs>
    <linearGradient id="tractorGreen" x1="0%" y1="0%" x2="0%" y2="100%">
      <stop offset="0%" style="stop-color:#4CAF50"/>
      <stop offset="100%" style="stop-color:#388E3C"/>
    </linearGradient>
    <linearGradient id="containerBlue2" x1="0%" y1="0%" x2="0%" y2="100%">
      <stop offset="0%" style="stop-color:#2496ED"/>
      <stop offset="100%" style="stop-color:#1976D2"/>
    </linearGradient>
  </defs>

  <!-- Container trailer -->
  <rect x="90" y="95" width="85" height="50" fill="url(#containerBlue2)" rx="3"/>
  <!-- Container ridges -->
  <rect x="95" y="100" width="75" height="10" fill="#1A7AC7" rx="1"/>
  <rect x="95" y="113" width="75" height="10" fill="#1A7AC7" rx="1"/>
  <rect x="95" y="126" width="75" height="10" fill="#1A7AC7" rx="1"/>
  <!-- Corner posts -->
  <rect x="90" y="95" width="6" height="50" fill="#1565C0"/>
  <rect x="169" y="95" width="6" height="50" fill="#1565C0"/>

  <!-- Trailer wheels -->
  <circle cx="115" cy="155" r="12" fill="#333"/>
  <circle cx="115" cy="155" r="6" fill="#666"/>
  <circle cx="150" cy="155" r="12" fill="#333"/>
  <circle cx="150" cy="155" r="6" fill="#666"/>

  <!-- Trailer hitch bar -->
  <rect x="55" y="125" width="40" height="6" fill="#555"/>

  <!-- Tractor body -->
  <rect x="20" y="90" width="50" height="40" fill="url(#tractorGreen)" rx="5"/>

  <!-- Tractor hood -->
  <rect x="15" y="100" width="20" height="25" fill="url(#tractorGreen)" rx="3"/>

  <!-- Tractor cabin -->
  <rect x="35" y="70" width="30" height="25" fill="#333" rx="3"/>
  <rect x="38" y="73" width="24" height="18" fill="#87CEEB" rx="2"/>

  <!-- Exhaust pipe -->
  <rect x="18" y="80" width="5" height="20" fill="#444" rx="1"/>

  <!-- Big rear wheel -->
  <circle cx="55" cy="145" r="22" fill="#333"/>
  <circle cx="55" cy="145" r="16" fill="#444"/>
  <circle cx="55" cy="145" r="8" fill="#666"/>
  <!-- Wheel treads -->
  <g stroke="#555" stroke-width="3">
    <line x1="55" y1="125" x2="55" y2="130"/>
    <line x1="55" y1="160" x2="55" y2="165"/>
    <line x1="35" y1="145" x2="40" y2="145"/>
    <line x1="70" y1="145" x2="75" y2="145"/>
    <line x1="40" y1="130" x2="43" y2="133"/>
    <line x1="67" y1="157" x2="70" y2="160"/>
    <line x1="40" y1="160" x2="43" y2="157"/>
    <line x1="67" y1="133" x2="70" y2="130"/>
  </g>

  <!-- Small front wheel -->
  <circle cx="22" cy="145" r="12" fill="#333"/>
  <circle cx="22" cy="145" r="8" fill="#444"/>
  <circle cx="22" cy="145" r="4" fill="#666"/>

  <!-- Ground line -->
  <line x1="5" y1="167" x2="195" y2="167" stroke="#5D8A3E" stroke-width="3"/>
</svg>
